<!DOCTYPE svg PUBLIC "-//W3C//DTD SVG 1.1//EN" "http://www.w3.org/Graphics/SVG/1.1/DTD/svg11.dtd">
<!-- Uploaded to: SVG Repo, www.svgrepo.com, Transformed by: SVG Repo Mixer Tools -->
<svg fill="#d27998" version="1.1" id="Capa_1" xmlns="http://www.w3.org/2000/svg" xmlns:xlink="http://www.w3.org/1999/xlink" width="800px" height="800px" viewBox="0 0 405.537 405.537" xml:space="preserve" stroke="#d27998">
<g id="SVGRepo_bgCarrier" stroke-width="0"/>
<g id="SVGRepo_tracerCarrier" stroke-linecap="round" stroke-linejoin="round"/>
<g id="SVGRepo_iconCarrier"> <g> <g> <path d="M315.578,35.433c4.348-1.206,8.033-4.088,10.256-8.013c2.219-3.926,2.789-8.572,1.582-12.917l-0.568-2.047 c-2.512-9.046-11.881-14.341-20.924-11.833l-68.567,19.021c-4.076,1.139-7.642,3.688-10.035,7.179 c-3.343,4.87-8.461,13.847-15.226,26.692c-3.834-0.394-7.688-0.593-11.484-0.593c-60.549,0-110.705,49.02-112.201,109.447 c-6.381,2.448-10.91,8.633-10.91,15.877v25.025c0,9.388,7.611,16.998,17,16.998h3.061l23.768,151.903 c1.014,6.479,5.605,11.624,11.57,13.552v2.813c0,9.39,7.611,17,17,17h101.424c9.39,0,16.999-7.61,16.999-17v-2.812 c5.969-1.927,10.561-7.072,11.571-13.553l23.771-151.903h3.059c9.39,0,17-7.61,17-16.999v-25.024 c0-7.243-4.53-13.428-10.911-15.877c-1.052-42.516-26.429-81.094-65.033-99.041c2.319-4.303,4.334-7.908,6.008-10.752 L315.578,35.433z M200.61,328.611c-14.02,0-25.424-17.741-25.424-39.552c0-21.808,11.404-39.547,25.424-39.547 c14.018,0,25.424,17.739,25.424,39.547C226.034,310.87,214.627,328.611,200.61,328.611z M185.936,89.85 c3.994,10.486,14.889,18.779,28.294,21.37c2.821,0.546,5.683,0.822,8.5,0.822c9.304,0,17.879-2.995,23.839-8.273 c18.167,13.647,29.495,34.897,30.656,57.478H123.991C125.774,126.146,151.424,96.553,185.936,89.85z"/> </g> </g> </g>
</svg>